<svg><defs><font id="iconfont" horiz-adv-x="1024"><font-face font-family="iconfont" font-weight="500" units-per-em="1024" ascent="896" descent="-128"/><glyph glyph-name="x" unicode="x" horiz-adv-x="1001" d="M281 543q-27-1-53-1h-83q-18 0-36.5-6T76 517.5t-23-32-9-45.5v-76h912v41q0 16-.5 30t-.5 18q0 13-5 29t-17 29.5-31.5 22.5-49.5 9H719v-97H281v97zm674-233v-52q0-23 .5-52t.5-58-10.5-47.5-26-30-33-16T855 50q-14-1-29.5-.5T796 50h-32l-45 128H280L236 50h-63q-20 0-45 1-25 0-41 9.5t-25.5 23T48 113t-4 30v167h911zm-792-63q-12 0-21-8.5t-9-21.5 9-21.5 21-8.5q13 0 22 8.5t9 21.5-9 21.5-22 8.5zm153-124q-8-26-14-48-5-19-10.5-37T284 13t-3-15 1-14.5 9.5-10.5 21.5-4h365q23 0 34 12t2 38q-5 13-9.5 30.5T695 84q-5 19-11 39H316zm20 375v228q0 11 2.5 23t10 21.5T369 786t34 6h188q31 0 51.5-14.5T663 725V498H336z"/><glyph glyph-name="enter" unicode="" d="M512.356 461.315v155.25L745.24 383.69 512.356 73.192v155.25s-359.502.012-386.524 415.196C75.798 569.394 46.59 479.954 46.59 383.691c0-257.226 208.532-465.747 465.768-465.747s465.766 208.523 465.766 465.747c0 257.225-208.531 465.748-465.768 465.748-153.55 0-289.74-74.307-374.587-188.914 94.793-199.2 374.587-199.21 374.587-199.21z" horiz-adv-x="1024"/><glyph glyph-name="menu" unicode="" d="M152 664h720q16.56 0 28.28-11.72T912 624t-11.72-28.28T872 584H152q-16.56 0-28.28 11.72T112 624t11.72 28.28T152 664zm0-480h720q16.56 0 28.28-11.72T912 144t-11.72-28.28T872 104H152q-16.56 0-28.28 11.72T112 144t11.72 28.28T152 184zm0 240h720q16.56 0 28.28-11.72T912 384t-11.72-28.28T872 344H152q-16.56 0-28.28 11.72T112 384t11.72 28.28T152 424z" horiz-adv-x="1024"/><glyph glyph-name="eye" unicode="" d="M791.38 382.056q-55.285 85.825-138.573 128.4 22.184-37.827 22.184-81.845 0-67.296-47.836-115.108t-115.108-47.836-115.109 47.836-47.836 115.108q0 44.018 22.184 81.845-83.288-42.552-138.572-128.4 48.37-74.559 121.3-118.763t158.033-44.182 158.032 44.182 121.3 118.763zM529.504 521.722q0 7.286-5.098 12.36t-12.36 5.098q-45.462 0-78.027-32.542t-32.543-78.027q0-7.286 5.098-12.36t12.36-5.098 12.361 5.098 5.098 12.36q0 31.285 22.184 53.47t53.469 22.183q7.285 0 12.36 5.098t5.098 12.36zm308.43-139.666q0-12.36-7.286-25.094-50.932-83.66-136.943-134.033t-181.683-50.373-181.683 50.56-136.942 133.846q-7.286 12.733-7.286 25.094t7.286 25.093q50.931 83.288 136.942 133.847t181.683 50.56 181.683-50.56T830.65 407.149q7.286-12.733 7.286-25.093z" horiz-adv-x="1025"/><glyph glyph-name="tab" unicode="" d="M801.078 384.416c21.483-24.684 21.711-48.681.686-71.992L579.62 88.906c-9.6-7.767-20.567-11.197-32.91-10.282-12.34.913-21.94 4.8-28.795 11.656-55.308 55.307-104.674 104.9-148.098 148.781l-54.85 54.85c-17.828 17.828-33.71 33.824-47.65 47.994-13.941 14.173-25.37 25.714-34.283 34.626-8.912 8.911-13.597 13.825-14.055 14.74-1.373 1.829-3.773 5.144-7.199 9.943-3.43 4.798-5.144 10.624-5.144 17.48v41.138c0 10.515.115 22.399.344 35.656.229 13.254.343 26.737.343 40.452.458 31.996.912 67.649 1.37 106.956.458 0 .686.229.686.687a326.857 326.857 0 0 0 3.087 17.14c1.14 5.487 4.227 10.74 9.255 15.769 4.57 5.028 9.828 8.458 15.768 10.285 5.944 1.828 11.427 2.743 16.455 2.743h226.258c.915 0 2.972-.114 6.172-.344 3.198-.228 5.486-.571 6.856-1.026a62.441 62.441 0 0 0 15.085-8.915l292.763-294.82zM310.854 542.109c12.341 0 22.852 4.456 31.539 13.371 8.683 8.913 13.025 19.541 13.025 31.88 0 12.341-4.342 22.856-13.025 31.54-8.687 8.686-19.198 13.027-31.54 13.027-12.342 0-22.856-4.341-31.539-13.028-8.687-8.683-13.028-19.198-13.028-31.54 0-12.338 4.341-22.966 13.028-31.879 8.683-8.915 19.197-13.371 31.54-13.371zm0 0" horiz-adv-x="1024"/><glyph glyph-name="twitter" unicode="" d="M512 864C246.906 864 32 649.094 32 384S246.906-96 512-96s480 214.906 480 480-214.906 480-480 480zm238.58-357.638c.23-5.28.364-10.599.364-15.917 0-162.663-123.82-350.247-350.227-350.247-69.523 0-134.227 20.372-188.698 55.316a251.364 251.364 0 0 1 29.357-1.728c57.677 0 110.746 19.68 152.89 52.704-53.876.979-99.322 36.576-114.99 85.478a122.804 122.804 0 0 1 23.156-2.208c11.232 0 22.1 1.517 32.429 4.32-56.314 11.309-98.746 61.056-98.746 120.71 0 .519 0 1.037.02 1.556 16.588-9.216 35.577-14.765 55.756-15.399-33.024 22.08-54.758 59.75-54.758 102.47 0 22.56 6.067 43.7 16.665 61.882 60.71-74.477 151.412-123.475 253.728-128.62-2.092 9.004-3.187 18.412-3.187 28.05 0 67.988 55.123 123.092 123.091 123.092 35.405 0 67.392-14.957 89.856-38.88 28.032 5.51 54.375 15.763 78.164 29.875-9.197-28.742-28.704-52.877-54.125-68.102 24.902 2.976 48.633 9.6 70.694 19.372-16.493-24.69-37.363-46.368-61.42-63.724z" horiz-adv-x="1024"/><glyph glyph-name="search" unicode="" d="M940.571 43.307L726.096 258.029c44.778 60.855 69.263 134.077 69.263 211.012 0 95.732-37.354 185.78-104.889 253.311-67.781 67.536-157.825 104.889-253.557 104.889s-185.78-37.354-253.311-104.889c-139.518-139.518-139.518-366.859 0-506.626 67.536-67.536 157.579-104.889 253.311-104.889 77.18 0 150.155 24.487 211.257 69.263L862.645-34.622c21.52-21.52 56.403-21.52 77.676 0 21.77 21.52 21.77 56.403.25 77.921zM252.866 284.744c-101.425 101.673-101.425 266.916 0 368.342 49.227 49.227 114.535 76.192 184.295 76.192 69.511 0 134.819-26.966 184.047-76.192 49.227-49.227 76.443-114.535 76.443-184.295 0-69.762-27.211-135.065-76.443-184.295-49.227-49.227-114.535-76.192-184.047-76.192-69.762.25-135.065 27.211-184.295 76.443z" horiz-adv-x="1024"/><glyph glyph-name="weibo" unicode="" d="M420.726 305.335c-17.542 0-30.872-13.51-30.864-28.223 0-14.767 13.959-26.73 30.864-25.08 16.842 1.612 29.85 14.894 29.85 29.591 0 14.705-12.308 23.712-29.85 23.712zm25.999 105.386c-88.425-11.082-154.208-67.41-146.883-125.79 7.301-58.418 84.99-96.78 173.432-85.635 88.441 11.074 154.192 67.418 146.868 125.844-7.326 58.364-84.977 96.694-173.417 85.58zm2.64-195.03c-47.55-4.605-86.932 29.23-86.932 70.64 0 41.403 37.528 79.725 86.932 79.725 49.38 0 84.237-25.495 84.237-66.907s-36.664-78.97-84.237-83.457zM512 863.993c-265.094 0-479.996-214.902-479.996-479.996S246.906-96 512-96s479.996 214.902 479.996 479.996S777.094 863.992 512 863.992zm170.93-617.87c-57.877-70.325-184.192-91.546-269.497-78.53-85.086 12.802-198.857 76.267-166.477 180.56 60.053 130.104 165.675 180.16 165.675 180.16s52.288 18.336 82.326 7.278c26.84-15.884 16.685-51.762 16.685-51.762-15.57-36.703 12.19-18.972 21.094-17.833 8.881 1.037 42.803 16.709 75.025 12.252 32.232-4.51 47.329-34.455 40.664-53.411-6.711-18.886-22.241-29.945 4.441-36.648 80.827-20.19 72.583-90.413 30.063-142.066zm-30.29 244.261c-6.327 2.428-14.752 1.376-21.747 2.885-22.415 5.007-19.79 18.988-15.53 26.894 4.385 8.394 21.236 8.952 30.651 8.881 33.795-.487 70.138-30.266 63.575-78.633-1.281-9.407-1.99-15.562-10.178-21.464-12.237-8.621-30.211-3.395-26.478 27.76 2.153 18.501-8.52 29.324-20.293 33.677zm123.367-78.782c-12.363-20.025-40.373-10.005-37.677 13.573.637 5.636 1.752 13.935 2.413 17.346 10.877 61.838-46.583 124.39-104.994 119.14-8.08-.739-18.068-1.87-25.212-1.069-11.074 1.234-17.999 11.074-15.986 23.02 4.315 25.268 43.093 20.749 61.35 18.816 46.567-4.936 91.027-32.138 110.613-74.656 0-.001 28.866-52.336 9.493-116.17zm-310.404-93.078c-7.16 0-12.559-5.548-12.559-11.553 0-5.95 5.69-10.807 12.559-10.138 6.822.644 12.127 6.051 12.127 12.009 0 5.965-5.023 9.682-12.127 9.682z" horiz-adv-x="1024"/><glyph glyph-name="comment" unicode="" d="M432.545 617.213q-63.315 0-118.354-21.52t-87.524-58.349-32.486-79.04q0-33.935 21.933-65.385t61.66-54.626l40.141-23.174-14.484-34.761q14.07 8.276 25.658 16.139l18.208 12.829 21.933-4.139q32.278-5.793 63.315-5.793 63.316 0 118.355 21.519t87.524 58.35 32.485 79.04-32.485 79.041-87.524 58.35-118.355 21.519zm0 52.97q79.041 0 146.288-28.348t106.146-77.178 38.9-106.354-38.9-106.353-106.146-77.179-146.288-28.347q-35.589 0-72.833 6.621-51.315-36.417-115.044-52.97-14.898-3.724-35.589-6.62h-1.242q-4.552 0-8.483 3.31t-4.759 8.69q-.414 1.242-.414 2.69t2.07 2.69.827 2.483l1.035 2.069 1.448 2.276 1.655 2.07 1.862 2.068 1.656 1.862q2.069 2.483 9.518 10.346t10.76 12.208 9.31 12.001 10.346 15.932 8.484 18.209q-51.315 29.795-80.697 73.247t-29.381 92.697q0 57.522 38.9 106.354t106.146 77.178 146.288 28.347zm340.166-483.764q4.138-9.932 8.483-18.208t10.346-15.933 9.31-12 10.76-12.208 9.518-10.346q.414-.414 1.656-1.862t1.862-2.07 1.655-2.069 1.449-2.276l1.034-2.069.828-2.483 2.069-2.69-.414-2.69q-1.241-5.793-5.38-9.104t-9.104-2.896q-20.691 2.896-35.589 6.62-63.73 16.554-115.044 52.97-37.244-6.62-72.833-6.62-112.147 0-195.326 54.624 24.002-1.655 36.417-1.655 66.626 0 127.872 18.622t109.25 53.384q51.728 38.072 79.455 87.731t27.726 105.112q0 31.865-9.518 62.902 53.384-29.382 84.42-73.661t31.038-95.18q0-49.66-29.382-92.905t-80.696-73.04z" horiz-adv-x="1024"/><glyph glyph-name="time" unicode="" d="M512 709.888c-179.983 0-325.888-145.905-325.888-325.888S332.017 58.112 512 58.112 837.888 204.017 837.888 384 691.984 709.888 512 709.888zm201.634-527.521c-26.201-26.2-56.701-46.767-90.652-61.127C587.853 106.382 550.513 98.848 512 98.848c-38.513 0-75.853 7.534-110.982 22.392-33.951 14.36-64.45 34.926-90.652 61.127-26.2 26.2-46.767 56.7-61.127 90.652-14.857 35.128-22.391 72.468-22.391 110.981 0 38.513 7.534 75.853 22.391 110.982 14.36 33.951 34.927 64.45 61.127 90.652 26.201 26.2 56.701 46.767 90.652 61.127 35.13 14.857 72.47 22.391 110.982 22.391 38.513 0 75.853-7.534 110.982-22.391 33.951-14.36 64.45-34.927 90.652-61.127 26.2-26.201 46.767-56.701 61.127-90.652 14.858-35.129 22.391-72.469 22.391-110.982 0-38.513-7.534-75.853-22.391-110.982-14.36-33.95-34.927-64.45-61.127-90.651zM613.84 384H512v183.132c0 11.202-9.166 20.368-20.368 20.368-11.203 0-20.368-9.166-20.368-20.368V363.634v-.001-.18c0-11.203 9.165-20.368 20.368-20.368.9 0 1.785.065 2.655.18h119.553c11.203 0 20.368 9.165 20.368 20.368 0 11.202-9.166 20.367-20.368 20.367z" horiz-adv-x="1025"/><glyph glyph-name="douban" unicode="" d="M379.29 463.667h265.489V357.444h-265.49v106.223zM512 861.867C248.081 861.867 34.133 647.919 34.133 384S248.081-93.867 512-93.867 989.867 120.081 989.867 384 775.919 861.867 512 861.867zM299.622 622.933h424.756v-53.111H299.622v53.111zm398.2-106.223V304.333H326.178V516.71h371.644zm53.111-371.643H273.067v53.111h129.911c-12.766 26.556-29.423 55.228-50.04 86.153l49.972 19.456c19.865-29.355 37.547-52.566 53.248-105.677h94.617c18.706 26.556 35.158 67.174 49.289 106.018l54.34-20.139c-14.2-32.768-29.56-59.323-45.807-85.88h142.336v-53.042z" horiz-adv-x="1024"/><glyph glyph-name="zhihu" unicode="" d="M510.163 865.02c268.172 0 485.569-217.397 485.569-485.569S778.335-106.118 510.163-106.118 24.594 111.279 24.594 379.451 241.991 865.02 510.163 865.02zm255.564-685.037v408.062H536.408V179.983h40.982l14.892-51.217 72.093 51.217h101.353zm-364.623 177.16h111.504s0 43.626-21.808 46.048c-21.83 2.421-89.698 0-89.698 0v135.733h100.583s-1.199 44.837-20.609 44.837H317.48l25.44 73.933s-41.194-2.434-55.735-27.873c-14.554-25.451-61.801-156.342-61.801-156.342s15.741-7.265 42.415 12.121c26.662 19.386 35.138 53.324 35.138 53.324l48.469 2.421 1.222-138.156s-83.62 1.211-100.583 0c-16.976-1.211-26.662-46.048-26.662-46.048h127.246s-10.909-76.354-43.638-132.1c-32.705-55.746-94.529-99.373-94.529-99.373s44.849-18.175 88.475 7.277c43.638 25.44 75.807 137.375 75.807 137.375l102.33-125.267s9.349 59.612-1.642 76.46c-11.003 16.835-70.8 84.539-70.8 84.539l-26.127-23.029 18.593 74.119zm318.004 185.485V226.336h-47.644l-60.753-45.804-13.249 45.804h-12.505v316.292z" horiz-adv-x="1024"/><glyph glyph-name="write" unicode="" d="M655.228 635.503l53.975 53.975 107.95-107.95-53.975-53.975-107.95 107.95zM385.352 149.726l-107.95 107.95L628.24 608.516l107.95-107.95-350.838-350.839zM223.424 95.752l134.94 26.988-107.952 107.951z" horiz-adv-x="1024"/><glyph glyph-name="loader" unicode="" d="M32.797 383.6c0-261.1 208.68-473.46 468.34-479.46-226.58 5.541-408.38 177.82-408.38 389.541 0 215.2 187.9 389.68 419.64 389.68 49.66 0 89.94 40.26 89.94 89.92 0 49.642-40.28 89.921-89.94 89.921-264.88.003-479.6-214.72-479.6-479.6zm959.203 0c0 261.1-208.68 473.46-468.34 479.44 226.56-5.52 408.4-177.8 408.4-389.52 0-215.2-187.92-389.68-419.66-389.68-49.64 0-89.92-40.28-89.92-89.94 0-49.62 40.26-89.9 89.92-89.9C777.28-96 992 118.72 992 383.6z" horiz-adv-x="1024"/><glyph glyph-name="address" unicode="" d="M512 802.79c-184.863 0-334.723-149.86-334.723-334.722C177.277 283.2 439.59.283 439.59.283c39.99-46.68 105.44-46.928 145.04.249 0 0 262.093 282.67 262.093 467.536C846.723 652.93 696.867 802.79 512 802.79zm0-478.871c-85.53 0-154.844 69.321-154.844 154.844 0 85.52 69.315 154.843 154.844 154.843 85.522 0 154.84-69.322 154.84-154.843 0-85.523-69.318-154.844-154.84-154.844zm0 0" horiz-adv-x="1024"/><glyph glyph-name="share" unicode="" d="M714.893 491.352c-38.594 0-72.584 19.416-93.016 48.914L371.229 407.56c2.54-9.399 4.318-19.099 4.318-29.323 0-10.208-1.778-19.908-4.318-29.307l250.648-132.706c20.432 29.514 54.438 48.898 93.016 48.898 62.471 0 113.115-50.612 113.115-113.084S777.364 38.923 714.893 38.923c-62.487 0-113.115 50.628-113.115 113.115 0 1.08.286 2.08.317 3.128L338.287 294.857c-20.099-18.257-46.548-29.735-75.855-29.735-62.455 0-113.115 50.66-113.115 113.115 0 62.487 50.644 113.115 113.115 113.115 29.307 0 55.772-11.43 75.855-29.72l263.808 139.676c-.031 1.064-.317 2.064-.317 3.16 0 62.47 50.628 113.115 113.115 113.115 62.471 0 113.115-50.644 113.115-113.116 0-62.487-50.644-113.115-113.115-113.115zm0-402.515c34.88 0 63.17 28.29 63.17 63.17s-28.29 63.17-63.17 63.17c-34.895 0-63.17-28.291-63.17-63.17s28.275-63.17 63.17-63.17zM259.78 441.407c-34.895 0-63.186-28.29-63.186-63.186 0-34.879 28.29-63.17 63.186-63.17 34.895 0 63.17 28.291 63.17 63.17.016 34.895-28.275 63.186-63.17 63.186zm455.112 226.23c-34.895 0-63.17-28.29-63.17-63.17 0-34.895 28.275-63.185 63.17-63.185 34.88 0 63.17 28.29 63.17 63.185 0 34.88-28.29 63.17-63.17 63.17z" horiz-adv-x="1024"/><glyph glyph-name="like" unicode="" d="M344 630c36 0 78-18 102-42l24-24 42-42 42 42 24 24c30 30 66 42 102 42 18 0 36-6 54-12 42-24 66-54 72-102 6-42-6-84-36-114L512 138 254 402c-30 30-48 72-42 114s36 78 72 102c18 6 42 12 60 12m0 60c-30 0-60-6-84-18-126-66-144-222-54-312L470 96c12-12 30-18 42-18s30 6 36 18l264 264c90 90 72 246-54 312-24 12-54 18-84 18-54 0-108-24-144-60l-18-24-24 24c-36 36-90 60-144 60z" horiz-adv-x="1024"/><glyph glyph-name="github" unicode="" d="M507.558 871.085c133.997-2.995 244.452-48.938 332.865-137.83 88.352-88.951 133.996-201.563 136.93-334.96-1.437-106.682-32.405-198.569-91.287-280.033C827.125 36.738 750.573-18.07 654.852-52.153c-11.8-1.498-20.665 0-25.038 4.432-4.432 5.93-7.367 11.86-7.367 17.79l1.437 130.403c0 22.223-2.935 40.013-10.303 54.808-5.87 14.856-13.237 25.218-22.103 32.586 54.51 2.995 103.148 20.785 147.294 53.37 42.709 31.149 66.31 91.887 69.245 180.779 0 25.218-4.433 48.938-13.298 69.664-8.805 20.785-20.606 40.013-35.341 56.306 2.995 5.93 7.368 20.725 8.865 43.008 2.935 22.223-1.497 50.376-13.298 82.961 0 1.498-10.302 1.498-30.908-1.437-20.606-2.995-53.012-19.288-98.655-47.441-38.276 10.362-76.612 16.293-117.824 16.293-41.21 0-79.547-5.93-117.823-16.293-44.206 29.65-78.05 44.446-98.655 47.44-20.666 2.936-30.968 2.936-30.968 1.438-11.74-32.585-16.173-60.738-13.238-82.961 2.935-22.283 5.87-37.078 8.865-43.008-14.735-16.293-28.033-34.084-35.4-56.306-8.806-20.726-13.239-44.446-13.239-71.102 2.935-88.951 25.038-148.192 67.747-180.838 42.709-32.585 91.348-50.376 145.797-53.31-7.368-5.93-13.238-13.358-17.67-23.721-5.871-10.363-8.806-23.72-11.741-38.516-16.233-8.925-36.839-11.86-64.812-10.422-27.973 1.497-51.574 17.79-72.18 50.435-10.302 16.293-20.605 28.153-33.903 35.521-13.238 7.428-24.978 11.86-39.714 13.358-11.8 1.497-19.168 0-22.103-5.93-2.935-4.433 2.935-11.86 17.67-22.223 14.736-10.363 26.477-20.726 33.844-32.586 7.368-11.86 13.298-25.218 19.168-37.078 7.368-19.228 23.541-35.58 50.077-48.878 25.038-13.358 61.876-14.855 108.958-5.93l1.497-87.454c0-7.428-2.935-13.358-7.367-17.79-4.433-5.93-13.238-7.368-25.039-4.433-95.72 32.585-172.332 90.389-231.214 170.415-58.941 80.027-88.352 173.41-89.85 278.595 2.936 134.895 48.58 246.01 136.992 334.9 88.352 88.952 200.245 134.895 332.804 137.83l1.497-1.437z" horiz-adv-x="1024"/><glyph glyph-name="rss" unicode="" d="M351.286 159q0-40.179-28.125-68.304t-68.304-28.125-68.303 28.125T158.429 159t28.125 68.304 68.303 28.125 68.304-28.125T351.286 159zm257.143-61.775q1.004-14.062-8.538-24.107-9.04-10.547-23.605-10.547h-67.802q-12.555 0-21.596 8.287t-10.044 20.843q-11.05 115.011-92.662 196.624t-196.624 92.662q-12.556 1.004-20.843 10.044t-8.286 21.596v67.802q0 14.564 10.546 23.604 8.538 8.538 21.596 8.538h2.512q80.357-6.529 153.683-40.43t130.078-91.154q57.254-56.753 91.155-130.079t40.43-153.683zm257.142-1.004q1.005-13.56-9.04-23.605-9.04-10.045-23.102-10.045h-71.82q-13.058 0-22.349 8.79t-9.793 21.344q-6.027 107.98-50.726 205.162t-116.267 168.75-168.75 116.267-205.161 51.228q-12.556.502-21.345 9.793t-8.79 21.847v71.82q0 14.062 10.045 23.102 9.04 9.04 22.098 9.04h1.507q131.585-6.529 251.87-60.268t213.7-147.656q93.917-93.415 147.656-213.7T865.57 96.221z" horiz-adv-x="1024"/><glyph glyph-name="email2" unicode="" d="M512.011 336.873L901.588 661.46c-2.111.384-4.008 1.264-6.198 1.264H128.632c-2.145 0-4.053-.869-6.164-1.264l389.543-324.587zm418.24 290.992c0 3.657-1.005 7.044-2.112 10.374L651.981 408.06l276.576-276.632c.711 2.788 1.693 5.475 1.693 8.49v487.947zM95.894 638.273c-1.073-3.353-2.145-6.694-2.145-10.408V139.929c0-3.048 1.05-5.724 1.738-8.512L372.154 408.07 95.894 638.273zm529.151-252.61l-101.904-84.88c-3.195-2.72-7.146-4.03-11.13-4.03-3.952 0-7.925 1.31-11.154 4.03l-101.814 84.835L120.2 106.785c2.744-.723 5.464-1.728 8.433-1.728h766.77c3.025 0 5.746.994 8.545 1.728l-278.9 278.878z" horiz-adv-x="1024"/><glyph glyph-name="next" unicode="" d="M356.049 30.834q16.384 0 28.52 12.136l311.903 310.69q10.922 12.136 10.922 28.52t-10.922 28.52L384.569 721.389q-12.136 12.136-28.52 12.136t-27.914-12.136-11.53-28.52 10.923-28.52l283.99-282.776-283.99-282.776q-10.922-10.923-10.922-27.913t11.53-28.52 27.913-11.53z" horiz-adv-x="1024"/><glyph glyph-name="prev" unicode="" d="M655.58 34.699a36.341 36.341 0 0 0-25.787 10.686L317.148 358.174c-14.247 14.247-14.247 37.336 0 51.583l312.644 312.857c14.247 14.245 37.325 14.245 51.594 0 14.246-14.213 14.246-37.336 0-51.583l-286.86-287.07 286.86-286.992c14.247-14.247 14.247-37.337 0-51.584a36.425 36.425 0 0 0-25.807-10.686z" horiz-adv-x="1024"/><glyph glyph-name="email" unicode="" d="M512 390L352.67 507.99h318.66L512 390zm14.67-50.67l208.68 153.99V259.98H288.68v233.34l210-153.99a22.65 22.65 0 0 1 29.37 0zM512 864C246.89 864 32 649.11 32 384S246.89-96 512-96s480 214.89 480 480-214.89 480-480 480zm273.33-628.68A25.32 25.32 0 0 0 760.01 210H264.02a25.32 25.32 0 0 0-25.32 25.32v295.32a25.32 25.32 0 0 0 25.32 24.66h495.99c13.77 0 24.96-10.98 25.32-24.63z" horiz-adv-x="1024"/><glyph glyph-name="thanks" unicode="" d="M830.146 582.841H714.818c33.14 51.699 30.489 120.63-10.605 163.05-22.535 22.535-53.024 35.791-84.839 35.791-34.466 0-68.931-15.907-94.118-42.42-5.302-5.302-9.28-10.604-13.256-17.232-3.977 6.628-7.954 11.93-13.256 17.233-25.187 27.837-59.652 42.42-94.118 42.42-31.815 0-60.978-13.257-83.513-35.792-41.094-42.42-43.745-111.351-10.605-163.05H193.854c-43.745 0-79.536-35.791-79.536-79.536V450.28c0-14.581 11.93-26.512 26.512-26.512h742.34c14.582 0 26.512 11.93 26.512 26.512v53.025c0 43.745-35.791 79.536-79.536 79.536zm-357.914 0c-27.838 0-67.606 10.605-90.142 34.466-19.884 21.21-22.535 55.675-3.976 72.908 9.279 9.28 18.558 10.605 26.512 10.605 13.256 0 26.512-6.628 35.791-17.233 22.536-25.186 31.815-67.606 31.815-94.118v-6.628zm169.678 34.466c-22.536-23.861-62.304-34.466-90.142-34.466v7.954c0 26.512 9.28 68.931 31.815 94.118 10.605 10.605 23.86 17.233 35.791 17.233 6.628 0 17.233-1.326 26.512-10.605 17.233-18.559 15.908-51.699-3.976-74.234zm188.236-273.075H551.768V-13.682h228.005c42.42 0 76.885 34.466 76.885 76.885V317.72c0 14.581-11.93 26.512-26.512 26.512zM167.342 317.72V65.854c0-43.745 35.792-79.536 79.537-79.536h225.353v357.914H193.854c-14.581 0-26.512-11.93-26.512-26.512z" horiz-adv-x="1024"/><glyph glyph-name="telegram" unicode="" d="M668.96 163.817l78.754 371.246c6.96 32.674-11.794 45.531-33.223 37.508L251.634 394.183c-31.611-12.309-31.063-30-5.348-38.023l118.388-36.96L639.51 492.24c12.857 8.571 24.651 3.737 15.017-4.834l-222.309-200.88-8.571-122.16c12.308 0 17.691 5.348 24.103 11.794l57.84 55.714 120-88.388c21.977-12.309 37.508-5.897 43.405 20.365zM992 384c0-265.166-214.834-480-480-480S32 118.834 32 384s214.834 480 480 480 480-214.834 480-480z" horiz-adv-x="1024"/><glyph glyph-name="top" unicode="" d="M122.28 188.848c19.806-19.806 51.846-19.806 71.07 0l317.485 317.486L828.32 188.848c19.807-19.806 51.847-19.806 71.07 0 19.807 19.807 19.807 51.847 0 71.07L546.37 612.94c-19.806 19.807-51.846 19.807-71.07 0L122.28 259.92c-9.904-9.904-14.564-22.72-14.564-35.536-.583-12.815 4.66-25.631 14.563-35.535z" horiz-adv-x="1024"/><glyph glyph-name="category" unicode="" d="M888.78 92.39c0-27.312-22.21-49.383-49.384-49.383H219.484l86.904 409.274c0 27.313 22.208 49.384 49.383 49.384h569.977c27.313 0 49.383-22.209 49.383-49.384L888.78 92.391M318.25 538.632h558.115v48.832c0 27.312-22.209 49.383-49.384 49.383H528.888v45.383c0 27.313-22.208 49.383-49.383 49.383H231.347c-27.174 0-49.383-22.208-49.383-49.383V92.942l86.903 396.86c0 26.622 22.071 48.831 49.384 48.831" horiz-adv-x="1168"/><glyph glyph-name="quotes" unicode="" d="M945.773 401.82h-162.85v38.003c0 97.988 31.556 143.63 99.343 143.63 11.632 0 21.042 9.43 21.042 21.043V716.97c0 11.614-9.41 21.025-21.042 21.025-92.316 0-166.732-29.586-221.208-87.909-54.078-57.89-81.514-158.062-81.514-297.701V67.904c0-11.614 9.464-21.024 21.096-21.024h345.115c11.614 0 21.078 9.41 21.078 21.024v312.838a21.079 21.079 0 0 1-21.06 21.078zm-516.597 0H266.327v38.003c0 97.988 31.573 143.63 99.36 143.63 11.614 0 21.043 9.43 21.043 21.043V716.97c0 11.614-9.429 21.025-21.043 21.025-93.11 0-167.761-29.586-221.894-87.927-53.645-57.925-80.882-158.098-80.882-297.683V67.904c0-11.614 9.446-21.024 21.096-21.024h345.15c11.615 0 21.061 9.41 21.061 21.024v312.838a21.06 21.06 0 0 1-21.042 21.078z" horiz-adv-x="1024"/><glyph glyph-name="facebook" unicode="" d="M515.146 873.36c-264.93 0-479.386-214.46-479.386-479.385S250.222-85.41 515.146-85.41c264.93 0 479.385 214.461 479.385 479.385 0 264.93-214.461 479.386-479.385 479.386zm128.648-476.868h-83.226V96.248h-123.63v300.244h-63.086V499.92h63.085v63.085c0 83.225 35.326 133.702 133.702 133.702h83.225V593.279h-50.472c-37.827 0-40.348-15.153-40.348-40.348v-50.473h93.329l-12.61-105.97z" horiz-adv-x="1024"/><glyph glyph-name="in" unicode="" d="M519.682 864.631c-268.005 0-485.266-217.26-485.266-485.266s217.26-485.266 485.266-485.266 485.266 217.26 485.266 485.266S787.688 864.63 519.682 864.63zM400.896 178.222H302.63v316.22h98.266v-316.22zm-49.74 355.042c-31.057 0-51.091 22.01-51.091 49.185 0 27.73 20.658 49.08 52.374 49.08 31.68 0 51.091-21.316 51.715-49.08-.034-27.175-20.034-49.185-52.998-49.185zm408.629-355.042h-98.266v175.25c0 40.797-14.246 68.492-49.81 68.492-27.14 0-43.258-18.752-50.398-36.776-2.634-6.412-3.293-15.529-3.293-24.575V178.29h-98.335v215.355c0 39.48-1.248 72.477-2.565 100.9h85.372l4.506-43.916h1.975c12.93 20.623 44.645 51.057 97.643 51.057 64.644 0 113.136-43.328 113.136-136.43V178.222z" horiz-adv-x="1024"/></font>
</defs>
</svg>
